<svg xmlns="http://www.w3.org/2000/svg" viewBox="0 0 1139.22 509.21"><defs><style>.cls-1{fill:#674c99;}.cls-2{fill:none;stroke:#f4f4f4;stroke-miterlimit:10;stroke-width:3px;}</style></defs><title>Fichier 10</title><g id="Calque_2" data-name="Calque 2"><g id="accueil"><rect id="background" class="cls-1" width="1139.22" height="509.21"/><g id="profil"><polyline class="cls-2" points="1137.84 173.8 1110.86 211.35 958.24 203.37"/><path class="cls-2" d="M1137.84,192.58q-9.72,21.76-19.46,43.53l-61.21,38"/><line class="cls-2" x1="1137.84" y1="274.13" x2="1111.94" y2="318.49"/><polyline class="cls-2" points="1137.84 349.11 1038.85 349.11 1019.5 371.29 1048.04 398.75"/><ellipse class="cls-2" cx="951.13" cy="202.75" rx="7.98" ry="8.6"/><ellipse class="cls-2" cx="1050.32" cy="277.52" rx="7.98" ry="8.6"/><ellipse class="cls-2" cx="1107.33" cy="326.47" rx="7.98" ry="8.6"/><ellipse class="cls-2" cx="1052.47" cy="405.59" rx="7.98" ry="8.6"/><polyline class="cls-2" points="1.38 197.67 28.36 235.22 180.98 227.24"/><path class="cls-2" d="M1.38,216.45,20.83,260l61.22,38"/><line class="cls-2" x1="1.38" y1="298" x2="27.28" y2="342.36"/><polyline class="cls-2" points="1.38 372.98 100.37 372.98 119.72 395.16 91.18 422.62"/><ellipse class="cls-2" cx="188.09" cy="226.62" rx="7.98" ry="8.6"/><ellipse class="cls-2" cx="88.9" cy="301.39" rx="7.98" ry="8.6"/><ellipse class="cls-2" cx="31.89" cy="350.34" rx="7.98" ry="8.6"/><ellipse class="cls-2" cx="86.75" cy="429.46" rx="7.98" ry="8.6"/></g></g></g></svg>